<mxfile host="app.diagrams.net" modified="2021-05-04T01:45:25.073Z" agent="5.0 (Windows NT 10.0; Win64; x64) AppleWebKit/537.36 (KHTML, like Gecko) Chrome/90.0.4430.93 Safari/537.36" etag="lZLTosTaWkjk-_TnqZY_" version="14.6.9" type="github">
  <diagram name="Page-1" id="e3a06f82-3646-2815-327d-82caf3d4e204">
    <mxGraphModel dx="1274" dy="741" grid="1" gridSize="10" guides="1" tooltips="1" connect="1" arrows="1" fold="1" page="1" pageScale="1.5" pageWidth="1169" pageHeight="826" background="none" math="0" shadow="0">
      <root>
        <mxCell id="0" style=";html=1;" />
        <mxCell id="1" style=";html=1;" parent="0" />
        <mxCell id="wKypU4OM2LWgkLV93vPs-47" style="edgeStyle=none;rounded=0;html=1;startSize=10;endSize=10;jettySize=auto;orthogonalLoop=1;fontSize=14;endArrow=none;endFill=0;strokeWidth=2;entryX=0.477;entryY=0.549;entryDx=0;entryDy=0;entryPerimeter=0;exitX=0.498;exitY=0.053;exitDx=0;exitDy=0;exitPerimeter=0;" edge="1" parent="1">
          <mxGeometry relative="1" as="geometry">
            <mxPoint x="1190.7460000000003" y="715.4495000000002" as="sourcePoint" />
            <mxPoint x="1190.5825899999998" y="585.2460000000001" as="targetPoint" />
          </mxGeometry>
        </mxCell>
        <mxCell id="wKypU4OM2LWgkLV93vPs-30" value="DataCenter" style="whiteSpace=wrap;html=1;fillColor=#d5e8d4;fontSize=14;strokeColor=none;verticalAlign=top;" vertex="1" parent="1">
          <mxGeometry x="990" y="213" width="395" height="306" as="geometry" />
        </mxCell>
        <mxCell id="wKypU4OM2LWgkLV93vPs-31" value="Unidade Curitiba" style="text;strokeColor=none;fillColor=none;html=1;fontSize=24;fontStyle=1;verticalAlign=middle;align=center;" vertex="1" parent="1">
          <mxGeometry x="991" y="130" width="400" height="40" as="geometry" />
        </mxCell>
        <mxCell id="wKypU4OM2LWgkLV93vPs-32" value="Internet&amp;nbsp;&lt;br&gt;Copel" style="ellipse;shape=cloud;whiteSpace=wrap;html=1;" vertex="1" parent="1">
          <mxGeometry x="991.2" y="160" width="80" height="70" as="geometry" />
        </mxCell>
        <mxCell id="wKypU4OM2LWgkLV93vPs-33" value="Internet Vivo" style="ellipse;shape=cloud;whiteSpace=wrap;html=1;labelBackgroundColor=#ffffff;" vertex="1" parent="1">
          <mxGeometry x="1305" y="155.25" width="85" height="90" as="geometry" />
        </mxCell>
        <mxCell id="6a7d8f32e03d9370-60" value="DataCenter" style="whiteSpace=wrap;html=1;fillColor=#d5e8d4;fontSize=14;strokeColor=none;verticalAlign=top;" parent="1" vertex="1">
          <mxGeometry x="310" y="258.25" width="395" height="306" as="geometry" />
        </mxCell>
        <mxCell id="wKypU4OM2LWgkLV93vPs-4" style="edgeStyle=none;rounded=0;html=1;startSize=10;endSize=10;jettySize=auto;orthogonalLoop=1;fontSize=14;endArrow=none;endFill=0;strokeWidth=2;entryX=0.52;entryY=0.581;entryDx=0;entryDy=0;entryPerimeter=0;exitX=0.573;exitY=0.263;exitDx=0;exitDy=0;exitPerimeter=0;" edge="1" parent="1" source="wKypU4OM2LWgkLV93vPs-2" target="6a7d8f32e03d9370-17">
          <mxGeometry relative="1" as="geometry">
            <mxPoint x="442.0263799999998" y="474.2360000000001" as="sourcePoint" />
            <mxPoint x="592.9782999999998" y="360.23" as="targetPoint" />
          </mxGeometry>
        </mxCell>
        <mxCell id="wKypU4OM2LWgkLV93vPs-5" style="edgeStyle=none;rounded=0;html=1;startSize=10;endSize=10;jettySize=auto;orthogonalLoop=1;fontSize=14;endArrow=none;endFill=0;strokeWidth=2;entryX=0.524;entryY=0.574;entryDx=0;entryDy=0;entryPerimeter=0;exitX=0.49;exitY=0.368;exitDx=0;exitDy=0;exitPerimeter=0;" edge="1" parent="1" source="6a7d8f32e03d9370-13" target="wKypU4OM2LWgkLV93vPs-1">
          <mxGeometry relative="1" as="geometry">
            <mxPoint x="585.0599799999998" y="458.2539999999999" as="sourcePoint" />
            <mxPoint x="582.0784000000001" y="355.254" as="targetPoint" />
          </mxGeometry>
        </mxCell>
        <mxCell id="6a7d8f32e03d9370-49" style="edgeStyle=none;rounded=0;html=1;startSize=10;endSize=10;jettySize=auto;orthogonalLoop=1;fontSize=14;endArrow=none;endFill=0;strokeWidth=2;exitX=0.508;exitY=0.395;exitDx=0;exitDy=0;exitPerimeter=0;entryX=0.52;entryY=0.595;entryDx=0;entryDy=0;entryPerimeter=0;" parent="1" source="6a7d8f32e03d9370-13" target="6a7d8f32e03d9370-17" edge="1">
          <mxGeometry relative="1" as="geometry">
            <mxPoint x="491" y="695.25" as="sourcePoint" />
            <mxPoint x="481" y="545.25" as="targetPoint" />
          </mxGeometry>
        </mxCell>
        <mxCell id="wKypU4OM2LWgkLV93vPs-3" style="edgeStyle=none;rounded=0;html=1;startSize=10;endSize=10;jettySize=auto;orthogonalLoop=1;fontSize=14;endArrow=none;endFill=0;strokeWidth=2;entryX=0.49;entryY=0.52;entryDx=0;entryDy=0;entryPerimeter=0;exitX=0.713;exitY=0.447;exitDx=0;exitDy=0;exitPerimeter=0;" edge="1" parent="1" source="wKypU4OM2LWgkLV93vPs-2" target="wKypU4OM2LWgkLV93vPs-1">
          <mxGeometry relative="1" as="geometry">
            <mxPoint x="553.74" y="668.25" as="sourcePoint" />
            <mxPoint x="543.74" y="518.25" as="targetPoint" />
          </mxGeometry>
        </mxCell>
        <mxCell id="6a7d8f32e03d9370-57" value="PAs" style="whiteSpace=wrap;html=1;fillColor=#FFD470;gradientColor=none;fontSize=14;strokeColor=none;verticalAlign=top;" parent="1" vertex="1">
          <mxGeometry x="381" y="715.25" width="268" height="130" as="geometry" />
        </mxCell>
        <mxCell id="6a7d8f32e03d9370-34" style="edgeStyle=none;rounded=0;html=1;startSize=10;endSize=10;jettySize=auto;orthogonalLoop=1;fontSize=14;endArrow=none;endFill=0;strokeWidth=2;entryX=0.603;entryY=0.51;entryDx=0;entryDy=0;entryPerimeter=0;exitX=0.25;exitY=0;exitDx=0;exitDy=0;" parent="1" source="6a7d8f32e03d9370-57" target="6a7d8f32e03d9370-26" edge="1">
          <mxGeometry relative="1" as="geometry">
            <mxPoint x="268" y="684.3965028355387" as="targetPoint" />
          </mxGeometry>
        </mxCell>
        <mxCell id="6a7d8f32e03d9370-33" style="edgeStyle=none;rounded=0;html=1;startSize=10;endSize=10;jettySize=auto;orthogonalLoop=1;fontSize=14;endArrow=none;endFill=0;strokeWidth=2;entryX=0.54;entryY=0.129;entryDx=0;entryDy=0;entryPerimeter=0;" parent="1" source="wKypU4OM2LWgkLV93vPs-2" target="6a7d8f32e03d9370-26" edge="1">
          <mxGeometry relative="1" as="geometry">
            <mxPoint x="268" y="520.3965028355387" as="targetPoint" />
          </mxGeometry>
        </mxCell>
        <mxCell id="6a7d8f32e03d9370-32" style="edgeStyle=none;rounded=0;html=1;startSize=10;endSize=10;jettySize=auto;orthogonalLoop=1;fontSize=14;endArrow=none;endFill=0;strokeWidth=2;exitX=0.563;exitY=0.189;exitDx=0;exitDy=0;exitPerimeter=0;" parent="1" source="wKypU4OM2LWgkLV93vPs-9" target="6a7d8f32e03d9370-13" edge="1">
          <mxGeometry relative="1" as="geometry">
            <mxPoint x="268" y="356.38687150837984" as="targetPoint" />
          </mxGeometry>
        </mxCell>
        <mxCell id="6a7d8f32e03d9370-13" value="SWCORE" style="verticalLabelPosition=bottom;aspect=fixed;html=1;verticalAlign=top;strokeColor=none;shape=mxgraph.citrix.router;fillColor=#66B2FF;gradientColor=#0066CC;fontSize=14;" parent="1" vertex="1">
          <mxGeometry x="554.94" y="447.25" width="57.26" height="38" as="geometry" />
        </mxCell>
        <mxCell id="6a7d8f32e03d9370-15" value="Web Server" style="verticalLabelPosition=top;aspect=fixed;html=1;verticalAlign=bottom;strokeColor=none;shape=mxgraph.citrix.cache_server;fillColor=#66B2FF;gradientColor=#0066CC;fontSize=14;labelPosition=center;align=center;" parent="1" vertex="1">
          <mxGeometry x="750" y="665.25" width="71" height="97.5" as="geometry" />
        </mxCell>
        <mxCell id="6a7d8f32e03d9370-16" value="DNS" style="verticalLabelPosition=bottom;aspect=fixed;html=1;verticalAlign=top;strokeColor=none;shape=mxgraph.citrix.chassis;fillColor=#66B2FF;gradientColor=#0066CC;fontSize=14;" parent="1" vertex="1">
          <mxGeometry x="750" y="843.5" width="81.73" height="105.5" as="geometry" />
        </mxCell>
        <mxCell id="6a7d8f32e03d9370-17" value="Fortigate51" style="verticalLabelPosition=bottom;aspect=fixed;html=1;verticalAlign=top;strokeColor=none;shape=mxgraph.citrix.firewall;fillColor=#66B2FF;gradientColor=#0066CC;fontSize=14;" parent="1" vertex="1">
          <mxGeometry x="390" y="311.25" width="59.67" height="74" as="geometry" />
        </mxCell>
        <mxCell id="6a7d8f32e03d9370-26" value="" style="verticalLabelPosition=bottom;aspect=fixed;html=1;verticalAlign=top;strokeColor=none;shape=mxgraph.citrix.switch;fillColor=#66B2FF;gradientColor=#0066CC;fontSize=14;" parent="1" vertex="1">
          <mxGeometry x="373.83000000000004" y="597.75" width="92" height="41.5" as="geometry" />
        </mxCell>
        <mxCell id="6a7d8f32e03d9370-62" value="Unidade Curitiba" style="text;strokeColor=none;fillColor=none;html=1;fontSize=24;fontStyle=1;verticalAlign=middle;align=center;" parent="1" vertex="1">
          <mxGeometry x="311" y="175.25" width="400" height="40" as="geometry" />
        </mxCell>
        <mxCell id="wKypU4OM2LWgkLV93vPs-1" value="Fortigate51&lt;br&gt;" style="verticalLabelPosition=bottom;aspect=fixed;html=1;verticalAlign=top;strokeColor=none;shape=mxgraph.citrix.firewall;fillColor=#66B2FF;gradientColor=#0066CC;fontSize=14;" vertex="1" parent="1">
          <mxGeometry x="553.74" y="311.75" width="59.67" height="74" as="geometry" />
        </mxCell>
        <mxCell id="wKypU4OM2LWgkLV93vPs-2" value="SWCORE" style="verticalLabelPosition=bottom;aspect=fixed;html=1;verticalAlign=top;strokeColor=none;shape=mxgraph.citrix.router;fillColor=#66B2FF;gradientColor=#0066CC;fontSize=14;" vertex="1" parent="1">
          <mxGeometry x="391.19999999999993" y="447.25" width="57.26" height="38" as="geometry" />
        </mxCell>
        <mxCell id="wKypU4OM2LWgkLV93vPs-9" value="" style="verticalLabelPosition=bottom;aspect=fixed;html=1;verticalAlign=top;strokeColor=none;shape=mxgraph.citrix.switch;fillColor=#66B2FF;gradientColor=#0066CC;fontSize=14;" vertex="1" parent="1">
          <mxGeometry x="537.57" y="597.75" width="92" height="41.5" as="geometry" />
        </mxCell>
        <mxCell id="wKypU4OM2LWgkLV93vPs-10" value="client" style="verticalLabelPosition=bottom;aspect=fixed;html=1;verticalAlign=top;strokeColor=none;shape=mxgraph.citrix.desktop;fillColor=#66B2FF;gradientColor=#0066CC;fontSize=14;" vertex="1" parent="1">
          <mxGeometry x="412.31999999999994" y="755.25" width="52.67" height="58" as="geometry" />
        </mxCell>
        <mxCell id="wKypU4OM2LWgkLV93vPs-11" value="client" style="verticalLabelPosition=bottom;aspect=fixed;html=1;verticalAlign=top;strokeColor=none;shape=mxgraph.citrix.desktop;fillColor=#66B2FF;gradientColor=#0066CC;fontSize=14;" vertex="1" parent="1">
          <mxGeometry x="464.99" y="755.25" width="52.67" height="58" as="geometry" />
        </mxCell>
        <mxCell id="wKypU4OM2LWgkLV93vPs-12" value="client" style="verticalLabelPosition=bottom;aspect=fixed;html=1;verticalAlign=top;strokeColor=none;shape=mxgraph.citrix.desktop;fillColor=#66B2FF;gradientColor=#0066CC;fontSize=14;" vertex="1" parent="1">
          <mxGeometry x="517.66" y="755.25" width="52.67" height="58" as="geometry" />
        </mxCell>
        <mxCell id="wKypU4OM2LWgkLV93vPs-13" value="client" style="verticalLabelPosition=bottom;aspect=fixed;html=1;verticalAlign=top;strokeColor=none;shape=mxgraph.citrix.desktop;fillColor=#66B2FF;gradientColor=#0066CC;fontSize=14;" vertex="1" parent="1">
          <mxGeometry x="570.3299999999999" y="755.25" width="52.67" height="58" as="geometry" />
        </mxCell>
        <mxCell id="wKypU4OM2LWgkLV93vPs-14" style="edgeStyle=none;rounded=0;html=1;startSize=10;endSize=10;jettySize=auto;orthogonalLoop=1;fontSize=14;endArrow=none;endFill=0;strokeWidth=2;exitX=0.75;exitY=0;exitDx=0;exitDy=0;" edge="1" parent="1" source="6a7d8f32e03d9370-57" target="wKypU4OM2LWgkLV93vPs-9">
          <mxGeometry relative="1" as="geometry">
            <mxPoint x="490.4748814578361" y="725.25" as="sourcePoint" />
            <mxPoint x="439.3059999999998" y="628.915" as="targetPoint" />
          </mxGeometry>
        </mxCell>
        <mxCell id="wKypU4OM2LWgkLV93vPs-17" style="edgeStyle=none;rounded=0;html=1;startSize=10;endSize=10;jettySize=auto;orthogonalLoop=1;fontSize=14;endArrow=none;endFill=0;strokeWidth=2;entryX=0.972;entryY=0.57;entryDx=0;entryDy=0;entryPerimeter=0;strokeColor=#FF0000;" edge="1" parent="1" source="6a7d8f32e03d9370-13" target="wKypU4OM2LWgkLV93vPs-2">
          <mxGeometry relative="1" as="geometry">
            <mxPoint x="458.0000000000002" y="725.25" as="sourcePoint" />
            <mxPoint x="439.3059999999998" y="628.915" as="targetPoint" />
          </mxGeometry>
        </mxCell>
        <mxCell id="wKypU4OM2LWgkLV93vPs-18" style="edgeStyle=none;rounded=0;html=1;startSize=10;endSize=10;jettySize=auto;orthogonalLoop=1;fontSize=14;endArrow=none;endFill=0;strokeWidth=2;entryX=0.98;entryY=0.43;entryDx=0;entryDy=0;entryPerimeter=0;exitX=0.01;exitY=0.401;exitDx=0;exitDy=0;exitPerimeter=0;strokeColor=#FF0000;" edge="1" parent="1" source="wKypU4OM2LWgkLV93vPs-1" target="6a7d8f32e03d9370-17">
          <mxGeometry relative="1" as="geometry">
            <mxPoint x="564.94" y="476.8070475669956" as="sourcePoint" />
            <mxPoint x="456.85671999999977" y="478.90999999999997" as="targetPoint" />
          </mxGeometry>
        </mxCell>
        <mxCell id="wKypU4OM2LWgkLV93vPs-19" value="STACK" style="edgeStyle=none;rounded=0;html=1;startSize=10;endSize=10;jettySize=auto;orthogonalLoop=1;fontSize=14;endArrow=none;endFill=0;strokeWidth=2;strokeColor=#FF0000;" edge="1" parent="1">
          <mxGeometry x="0.0025" y="-12" relative="1" as="geometry">
            <mxPoint x="701" y="535.42" as="sourcePoint" />
            <mxPoint x="661" y="535.25" as="targetPoint" />
            <mxPoint as="offset" />
          </mxGeometry>
        </mxCell>
        <mxCell id="wKypU4OM2LWgkLV93vPs-20" value="RJ45" style="edgeStyle=none;rounded=0;html=1;startSize=10;endSize=10;jettySize=auto;orthogonalLoop=1;fontSize=14;endArrow=none;endFill=0;strokeWidth=2;" edge="1" parent="1">
          <mxGeometry x="0.0025" y="-12" relative="1" as="geometry">
            <mxPoint x="701" y="560.11" as="sourcePoint" />
            <mxPoint x="661" y="559.9399999999999" as="targetPoint" />
            <mxPoint as="offset" />
          </mxGeometry>
        </mxCell>
        <mxCell id="wKypU4OM2LWgkLV93vPs-21" value="Internet&amp;nbsp;&lt;br&gt;Copel" style="ellipse;shape=cloud;whiteSpace=wrap;html=1;" vertex="1" parent="1">
          <mxGeometry x="311.20000000000005" y="205.25" width="80" height="70" as="geometry" />
        </mxCell>
        <mxCell id="wKypU4OM2LWgkLV93vPs-22" value="Internet Vivo" style="ellipse;shape=cloud;whiteSpace=wrap;html=1;" vertex="1" parent="1">
          <mxGeometry x="625" y="205.25" width="80" height="70" as="geometry" />
        </mxCell>
        <mxCell id="wKypU4OM2LWgkLV93vPs-23" style="edgeStyle=none;rounded=0;html=1;startSize=10;endSize=10;jettySize=auto;orthogonalLoop=1;fontSize=14;endArrow=none;endFill=0;strokeWidth=2;exitX=0.004;exitY=0.074;exitDx=0;exitDy=0;exitPerimeter=0;" edge="1" parent="1" source="wKypU4OM2LWgkLV93vPs-1" target="wKypU4OM2LWgkLV93vPs-21">
          <mxGeometry relative="1" as="geometry">
            <mxPoint x="551" y="323.25" as="sourcePoint" />
            <mxPoint x="431.02840000000015" y="365.28" as="targetPoint" />
          </mxGeometry>
        </mxCell>
        <mxCell id="wKypU4OM2LWgkLV93vPs-24" style="edgeStyle=none;rounded=0;html=1;startSize=10;endSize=10;jettySize=auto;orthogonalLoop=1;fontSize=14;endArrow=none;endFill=0;strokeWidth=2;" edge="1" parent="1" source="wKypU4OM2LWgkLV93vPs-22" target="6a7d8f32e03d9370-17">
          <mxGeometry relative="1" as="geometry">
            <mxPoint x="575.0176299999998" y="333.22" as="sourcePoint" />
            <mxPoint x="397.8129633731319" y="264.3451314394217" as="targetPoint" />
          </mxGeometry>
        </mxCell>
        <mxCell id="wKypU4OM2LWgkLV93vPs-25" style="edgeStyle=none;rounded=0;html=1;startSize=10;endSize=10;jettySize=auto;orthogonalLoop=1;fontSize=14;endArrow=none;endFill=0;strokeWidth=2;" edge="1" parent="1" source="6a7d8f32e03d9370-17" target="wKypU4OM2LWgkLV93vPs-21">
          <mxGeometry relative="1" as="geometry">
            <mxPoint x="563.9786799999997" y="327.226" as="sourcePoint" />
            <mxPoint x="397.9469561210135" y="264.0755874514705" as="targetPoint" />
          </mxGeometry>
        </mxCell>
        <mxCell id="wKypU4OM2LWgkLV93vPs-26" style="edgeStyle=none;rounded=0;html=1;startSize=10;endSize=10;jettySize=auto;orthogonalLoop=1;fontSize=14;endArrow=none;endFill=0;strokeWidth=2;entryX=0.55;entryY=0.95;entryDx=0;entryDy=0;entryPerimeter=0;exitX=0.755;exitY=0.148;exitDx=0;exitDy=0;exitPerimeter=0;" edge="1" parent="1" source="wKypU4OM2LWgkLV93vPs-1" target="wKypU4OM2LWgkLV93vPs-22">
          <mxGeometry relative="1" as="geometry">
            <mxPoint x="406.23493266390597" y="321.25" as="sourcePoint" />
            <mxPoint x="380.50165088155245" y="280.9055631648189" as="targetPoint" />
          </mxGeometry>
        </mxCell>
        <mxCell id="wKypU4OM2LWgkLV93vPs-34" style="edgeStyle=none;rounded=0;html=1;startSize=10;endSize=10;jettySize=auto;orthogonalLoop=1;fontSize=14;endArrow=none;endFill=0;strokeWidth=2;entryX=0.477;entryY=0.549;entryDx=0;entryDy=0;entryPerimeter=0;exitX=0.484;exitY=0.009;exitDx=0;exitDy=0;exitPerimeter=0;" edge="1" parent="1" source="wKypU4OM2LWgkLV93vPs-29" target="wKypU4OM2LWgkLV93vPs-28">
          <mxGeometry relative="1" as="geometry">
            <mxPoint x="1149.9974" y="413.5039999999999" as="sourcePoint" />
            <mxPoint x="1152.00708" y="306.4960000000001" as="targetPoint" />
          </mxGeometry>
        </mxCell>
        <mxCell id="wKypU4OM2LWgkLV93vPs-35" value="SW Acesso" style="verticalLabelPosition=bottom;aspect=fixed;html=1;verticalAlign=top;strokeColor=none;shape=mxgraph.citrix.switch;fillColor=#66B2FF;gradientColor=#0066CC;fontSize=14;labelBackgroundColor=#ffffff;labelBorderColor=#000000;" vertex="1" parent="1">
          <mxGeometry x="1145" y="575.25" width="92" height="41.5" as="geometry" />
        </mxCell>
        <mxCell id="wKypU4OM2LWgkLV93vPs-36" style="edgeStyle=none;rounded=0;html=1;startSize=10;endSize=10;jettySize=auto;orthogonalLoop=1;fontSize=14;endArrow=none;endFill=0;strokeWidth=2;entryX=0.477;entryY=0.549;entryDx=0;entryDy=0;entryPerimeter=0;exitX=0.498;exitY=0.053;exitDx=0;exitDy=0;exitPerimeter=0;" edge="1" parent="1" source="wKypU4OM2LWgkLV93vPs-35">
          <mxGeometry relative="1" as="geometry">
            <mxPoint x="1191.1038400000004" y="540.9619999999999" as="sourcePoint" />
            <mxPoint x="1190.65259" y="447.2460000000002" as="targetPoint" />
          </mxGeometry>
        </mxCell>
        <mxCell id="wKypU4OM2LWgkLV93vPs-37" style="edgeStyle=none;rounded=0;html=1;startSize=10;endSize=10;jettySize=auto;orthogonalLoop=1;fontSize=14;endArrow=none;endFill=0;strokeWidth=2;entryX=0.55;entryY=0.95;entryDx=0;entryDy=0;entryPerimeter=0;exitX=0.478;exitY=0.457;exitDx=0;exitDy=0;exitPerimeter=0;" edge="1" parent="1" source="wKypU4OM2LWgkLV93vPs-28" target="wKypU4OM2LWgkLV93vPs-33">
          <mxGeometry relative="1" as="geometry">
            <mxPoint x="1200.8160000000003" y="587.4495000000002" as="sourcePoint" />
            <mxPoint x="1200.6525899999997" y="457.2460000000001" as="targetPoint" />
          </mxGeometry>
        </mxCell>
        <mxCell id="wKypU4OM2LWgkLV93vPs-38" style="edgeStyle=none;rounded=0;html=1;startSize=10;endSize=10;jettySize=auto;orthogonalLoop=1;fontSize=14;endArrow=none;endFill=0;strokeWidth=2;entryX=0.492;entryY=0.468;entryDx=0;entryDy=0;entryPerimeter=0;" edge="1" parent="1" source="wKypU4OM2LWgkLV93vPs-32" target="wKypU4OM2LWgkLV93vPs-28">
          <mxGeometry relative="1" as="geometry">
            <mxPoint x="1199.68226" y="319.0680000000002" as="sourcePoint" />
            <mxPoint x="1359.0000000000005" y="236.50000000000023" as="targetPoint" />
          </mxGeometry>
        </mxCell>
        <mxCell id="wKypU4OM2LWgkLV93vPs-28" value="Fortigate51&lt;br&gt;Stub 172.16.50.30/30" style="verticalLabelPosition=bottom;aspect=fixed;html=1;verticalAlign=top;strokeColor=none;shape=mxgraph.citrix.firewall;fillColor=#66B2FF;gradientColor=#0066CC;fontSize=14;labelBackgroundColor=#ffffff;labelBorderColor=#000000;" vertex="1" parent="1">
          <mxGeometry x="1161.16" y="275.25" width="59.67" height="74" as="geometry" />
        </mxCell>
        <mxCell id="wKypU4OM2LWgkLV93vPs-29" value="SWCORE&lt;br&gt;Stub 172.16.50.29/30" style="verticalLabelPosition=bottom;aspect=fixed;html=1;verticalAlign=top;shape=mxgraph.citrix.router;fillColor=#66B2FF;gradientColor=#0066CC;fontSize=14;strokeColor=none;labelBackgroundColor=#FFFFFF;labelBorderColor=#000000;" vertex="1" parent="1">
          <mxGeometry x="1162.3600000000001" y="436.25" width="57.26" height="38" as="geometry" />
        </mxCell>
        <mxCell id="wKypU4OM2LWgkLV93vPs-39" value="&lt;ul&gt;&lt;li&gt;&lt;span style=&quot;font-size: 14px&quot;&gt;VLAN100 - SRVDPR&lt;/span&gt;&lt;/li&gt;&lt;li&gt;&lt;span style=&quot;font-size: 14px&quot;&gt;VLAN101 - LANDPR&lt;/span&gt;&lt;/li&gt;&lt;li&gt;&lt;span style=&quot;font-size: 14px&quot;&gt;VLAN140 - LANME&lt;/span&gt;&lt;/li&gt;&lt;li&gt;&lt;span style=&quot;font-size: 14px&quot;&gt;VLAN160 - LANSLGS&lt;/span&gt;&lt;/li&gt;&lt;li&gt;&lt;span style=&quot;font-size: 14px&quot;&gt;VLAN254 - STBDPR&lt;/span&gt;&lt;/li&gt;&lt;li&gt;&lt;span style=&quot;font-size: 14px&quot;&gt;VLAN1920 - MGMTDPR&lt;/span&gt;&lt;/li&gt;&lt;/ul&gt;" style="text;html=1;align=left;verticalAlign=middle;resizable=0;points=[];autosize=1;strokeColor=none;rounded=0;direction=east;rotation=0;labelBackgroundColor=#ffffff;labelBorderColor=#000000;" vertex="1" parent="1">
          <mxGeometry x="1460" y="229.25" width="210" height="120" as="geometry" />
        </mxCell>
        <mxCell id="wKypU4OM2LWgkLV93vPs-40" value="RJ45" style="edgeStyle=none;rounded=0;html=1;startSize=10;endSize=10;jettySize=auto;orthogonalLoop=1;fontSize=14;endArrow=none;endFill=0;strokeWidth=2;" edge="1" parent="1">
          <mxGeometry x="0.0025" y="-12" relative="1" as="geometry">
            <mxPoint x="1380" y="505.42000000000013" as="sourcePoint" />
            <mxPoint x="1340" y="505.25000000000006" as="targetPoint" />
            <mxPoint as="offset" />
          </mxGeometry>
        </mxCell>
        <mxCell id="wKypU4OM2LWgkLV93vPs-42" value="PAs" style="whiteSpace=wrap;html=1;fillColor=#FFD470;gradientColor=none;fontSize=14;strokeColor=none;verticalAlign=top;" vertex="1" parent="1">
          <mxGeometry x="1053.5" y="710.25" width="268" height="130" as="geometry" />
        </mxCell>
        <mxCell id="wKypU4OM2LWgkLV93vPs-43" value="client" style="verticalLabelPosition=bottom;aspect=fixed;html=1;verticalAlign=top;strokeColor=none;shape=mxgraph.citrix.desktop;fillColor=#66B2FF;gradientColor=#0066CC;fontSize=14;" vertex="1" parent="1">
          <mxGeometry x="1084.82" y="750.25" width="52.67" height="58" as="geometry" />
        </mxCell>
        <mxCell id="wKypU4OM2LWgkLV93vPs-44" value="client" style="verticalLabelPosition=bottom;aspect=fixed;html=1;verticalAlign=top;strokeColor=none;shape=mxgraph.citrix.desktop;fillColor=#66B2FF;gradientColor=#0066CC;fontSize=14;" vertex="1" parent="1">
          <mxGeometry x="1137.49" y="750.25" width="52.67" height="58" as="geometry" />
        </mxCell>
        <mxCell id="wKypU4OM2LWgkLV93vPs-45" value="client" style="verticalLabelPosition=bottom;aspect=fixed;html=1;verticalAlign=top;strokeColor=none;shape=mxgraph.citrix.desktop;fillColor=#66B2FF;gradientColor=#0066CC;fontSize=14;" vertex="1" parent="1">
          <mxGeometry x="1190.1599999999999" y="750.25" width="52.67" height="58" as="geometry" />
        </mxCell>
        <mxCell id="wKypU4OM2LWgkLV93vPs-46" value="client" style="verticalLabelPosition=bottom;aspect=fixed;html=1;verticalAlign=top;strokeColor=none;shape=mxgraph.citrix.desktop;fillColor=#66B2FF;gradientColor=#0066CC;fontSize=14;" vertex="1" parent="1">
          <mxGeometry x="1242.83" y="750.25" width="52.67" height="58" as="geometry" />
        </mxCell>
        <mxCell id="wKypU4OM2LWgkLV93vPs-48" value="Text" style="text;html=1;strokeColor=none;fillColor=none;align=center;verticalAlign=middle;whiteSpace=wrap;rounded=0;labelBackgroundColor=#ffffff;" vertex="1" parent="1">
          <mxGeometry x="1210" y="490" width="40" height="20" as="geometry" />
        </mxCell>
        <mxCell id="wKypU4OM2LWgkLV93vPs-49" value="Servidor de DHCP = FW&lt;br&gt;&lt;br&gt;VLAN100 -&amp;nbsp;10.49.100.2 /24 - GW&lt;br&gt;VLAN101 - 10.49.101.1 /24 - GW&lt;br&gt;VLAN140 - 192.168.140.1 /24 - GW&lt;br&gt;VLAN160 - 192.168.160.1 /24 - GW&lt;br&gt;VLAN254 -&amp;nbsp;10.49.254.10 /30 - GW&lt;br&gt;VLAN1920 - 192.168.1.2 /29 - GW" style="text;html=1;strokeColor=none;fillColor=none;align=left;verticalAlign=middle;whiteSpace=wrap;rounded=0;labelBackgroundColor=#ffffff;labelBorderColor=#000000;" vertex="1" parent="1">
          <mxGeometry x="1470" y="349.25" width="250" height="260" as="geometry" />
        </mxCell>
      </root>
    </mxGraphModel>
  </diagram>
</mxfile>
